# xmcd
#
# Track frame offsets:
#	150
#	11728
#	29052
#	45454
#	57302
#	70849
#	87572
#	101554
#	117308
#	132918
#	155954
#	176247
#
# Disc length: 2522 seconds
# Revision: 0
# Processed by: cddbd v1.5.2PL0 Copyright (c) Steve Scherf et al.
# Submitted via: dBpowerAMP V12.0
#
DISCID=af09d80c
DTITLE=Graeme Hugo - With All My Heart 
DYEAR=2017
DGENRE=Country
TTITLE0=Sea Of Heartbreak
TTITLE1=She's Not Crying Anymore
TTITLE2=With All My Heart
TTITLE3=The Prisoner Song
TTITLE4=It's All Good
TTITLE5=Don't Close Your Eyes
TTITLE6=Blue Eyes Cryin In The Rain
TTITLE7=Believe
TTITLE8=Twinkle Twinkle Lucky Star
TTITLE9=Loving Her Was Easier
TTITLE10=Good Year For the Roses
TTITLE11=You've Never Been This Far Before
EXTD=
EXTT0=
EXTT1=
EXTT2=
EXTT3=
EXTT4=
EXTT5=
EXTT6=
EXTT7=
EXTT8=
EXTT9=
EXTT10=
EXTT11=
PLAYORDER=
